<?xml version="1.0" encoding="UTF-8" standalone="no"?>
<!-- Created with Inkscape (http://www.inkscape.org/) -->

<svg
   version="1.1"
   id="svg1"
   width="470"
   height="470"
   viewBox="0 0 470 470"
   xml:space="preserve"
   xmlns="http://www.w3.org/2000/svg"
   xmlns:svg="http://www.w3.org/2000/svg"
   xmlns:rdf="http://www.w3.org/1999/02/22-rdf-syntax-ns#"
   xmlns:cc="http://creativecommons.org/ns#"><defs
     id="defs1" /><g
     id="g1"><path
       id="path1"
       style="fill:#7ebae4;fill-rule:evenodd;stroke-width:16.1376"
       d="M 276.0957,25.917969 C 292.05497,97.086526 256.85848,267.97814 323.97266,239.42383 374.61641,217.87701 329.8753,136.74761 367.68479,117.12586 393.25109,103.85788 429.98278,13.086505 383.81881,41.077869 366.85684,51.362701 345.80788,107.34865 334.71413,56.921898 329.09906,31.398586 299.13099,22.013081 276.0957,25.917969 Z M 174.18016,130.95492 c -27.58331,32.43323 -54.57749,69.15923 -109.893208,52.78184 -38.198005,-11.30932 -69.7982859,54.61077 -17.862854,50.59629 33.810966,-2.6135 21.848539,15.2542 2.56362,29.54811 -25.108466,18.61031 -18.9073,87.414 18.203069,46.42178 48.151993,-53.18883 215.785883,-154.21377 144.252573,-159.75021 -14.9976,-1.16077 -22.27567,-18.4437 -37.2632,-19.59781 z M 160.2707,308.17867 c -5.04384,55.52785 94.51061,47.33907 86.38068,84.67131 -7.33499,33.68194 65.39054,89.28801 54.70058,37.83508 -4.56814,-21.98736 -20.32193,-57.33616 24.64531,-47.91523 35.32403,7.40062 80.23839,-58.85003 21.22512,-49.68619 C 284.88923,324.90141 222.66296,315.9106 160.2707,308.17867 Z" /><path
       id="path4"
       style="fill:#5277c3;fill-rule:evenodd;stroke-width:16.1376"
       d="m 186.47266,14.244141 c -22.46692,13.10056 -4.97814,41.779302 -7.95103,64.578857 -3.85641,29.575272 -33.3467,6.559923 -54.42496,11.093667 -17.01094,3.658903 -49.747807,39.777515 -18.24603,42.484785 21.13315,1.81618 42.03181,4.32765 63.11042,6.93038 43.63082,5.38741 141.20509,58.89781 130.89246,16.16231 -4.27787,-17.72748 -3.48573,-41.30217 -21.93988,-50.95047 -21.61532,0.27915 -52.81221,-1.6127 -56.10374,-28.966169 -2.51359,-20.88859 1.73471,-53.833103 -22.99852,-60.752252 -4.0043,-1.120208 -8.24679,-1.217299 -12.33872,-0.581108 z M 428.44922,130.21484 c -60.28095,66.39738 -279.57062,186.79361 -189.955,190.1768 23.7376,0.89615 52.53057,17.35987 71.21281,2.68844 19.28069,-15.1414 27.50457,-53.25977 53.79734,-49.91879 24.89178,3.16296 50.8719,17.42651 74.67532,9.4891 19.57181,-6.52636 25.11445,-41.99959 3.1529,-48.73629 -12.7546,1.75508 -53.99442,-3.95634 -34.41184,-19.72211 17.68825,-14.24067 33.92005,-33.44456 27.07091,-60.3247 -1.99976,-7.84829 -3.52512,-15.80841 -5.54244,-23.65245 z M 147.60938,228.1875 c -11.9871,18.28437 -43.089,30.81565 -36.58903,55.07185 5.17772,19.32187 17.17066,44.94619 -0.31191,60.48521 -19.357185,17.20522 -46.310534,31.85018 -53.315862,56.84528 -6.875271,24.53105 38.643448,38.7984 44.527952,14.88974 3.52882,-14.33753 36.2814,-42.46282 35.12123,-13.67848 -0.97619,24.2197 29.57289,55.99709 48.03994,39.12107 18.59099,-16.98928 1.00268,-41.22008 -3.40594,-60.87284 -11.35549,-50.6206 -22.71123,-101.24115 -34.06638,-151.86183 z" /><path
       style="fill:#ff0000"
       d="m 148.83693,9.4085202 c 17.86211,-12.337767 28.00455,-36.9692732 49.46019,-42.0378702 20.57932,-4.86158 39.26531,11.008219 47.76586,29.1030598 14.35595,30.5589962 7.78868,65.0842442 4.75472,97.2680452 -9.73146,103.230125 -34.6591,204.133325 -60.71876,304.475365 -4.90706,18.8945 -13.47123,38.19232 -10.6311,57.84325 2.91599,20.17579 33.61261,37.75071 23.69826,55.05243 -8.50468,14.84168 -22.55563,-6.10598 -28.28448,-14.91602 -12.99947,-19.99107 -26.81116,-42.54867 -22.91116,-67.65951 3.74785,-24.13128 11.74478,-47.31577 18.18979,-70.81917 20.68228,-75.42332 34.56313,-152.52633 44.24383,-230.16083 4.14993,-33.280401 -5.35121,-69.767128 8.7501,-100.225634 5.15068,-11.125362 -11.26337,-32.4105565 -19.5715,-16.956453 -6.79266,12.635154 -10.38102,28.176934 -22.28021,37.185122 -9.3281,7.061767 -33.722,2.661479 -23.66344,-12.189648 3.42442,-5.056036 1.76641,-14.936219 -3.70364,-5.71607 -5.85109,9.862414 -37.95532,30.027395 -31.66492,14.139727 4.97483,-12.564941 14.54344,-24.120796 24.77634,-33.13163 z"
       id="path1-5"
       transform="matrix(1.0098545,-0.90281781,0.77420427,0.75981138,-138.87313,242.03017)" /></g><metadata
     id="metadata19"><rdf:RDF><cc:Work
         rdf:about=""><cc:license
           rdf:resource="http://creativecommons.org/publicdomain/zero/1.0/" /></cc:Work><cc:License
         rdf:about="http://creativecommons.org/publicdomain/zero/1.0/"><cc:permits
           rdf:resource="http://creativecommons.org/ns#Reproduction" /><cc:permits
           rdf:resource="http://creativecommons.org/ns#Distribution" /><cc:permits
           rdf:resource="http://creativecommons.org/ns#DerivativeWorks" /></cc:License></rdf:RDF></metadata></svg>
